<svg width="222" height="190" viewBox="0 0 222 190" fill="none" xmlns="http://www.w3.org/2000/svg">
<path d="M2.85611 2.50949C1.48064 2.62968 0.463033 3.84215 0.58322 5.21762L2.54178 27.6322C2.66196 29.0077 3.87443 30.0253 5.2499 29.9051C6.62538 29.7849 7.64298 28.5724 7.5228 27.197L5.78186 7.27289L25.7059 5.53195C27.0814 5.41177 28.099 4.1993 27.9788 2.82383C27.8586 1.44836 26.6462 0.430746 25.2707 0.550933L2.85611 2.50949ZM1.46655 6.91494L218.668 189.209L221.883 185.379L4.68091 3.08506L1.46655 6.91494Z" fill="#D3DEF2"/>
<path d="M2.85611 2.50949C1.48064 2.62968 0.463033 3.84215 0.58322 5.21762L2.54178 27.6322C2.66196 29.0077 3.87443 30.0253 5.2499 29.9051C6.62538 29.7849 7.64298 28.5724 7.5228 27.197L5.78186 7.27289L25.7059 5.53195C27.0814 5.41177 28.099 4.1993 27.9788 2.82383C27.8586 1.44836 26.6462 0.430746 25.2707 0.550933L2.85611 2.50949ZM1.46655 6.91494L218.668 189.209L221.883 185.379L4.68091 3.08506L1.46655 6.91494Z" fill="black" fill-opacity="0.2"/>
</svg>
